<svg xmlns="http://www.w3.org/2000/svg" width="128" height="128" viewBox="0 0 128 128">
  <!-- Background -->
  <rect width="128" height="128" fill="#1a1a2e"/>

  <!-- Village silhouette -->
  <path d="M20 100 L20 60 L35 60 L35 50 L45 40 L55 50 L55 60 L70 60 L70 70 L85 70 L85 55 L100 55 L100 100 Z" fill="#4a4a6a"/>

  <!-- Tower/castle silhouette -->
  <path d="M100 100 L100 30 L105 30 L105 25 L110 20 L115 25 L115 30 L120 30 L120 100 Z" fill="#3a3a5a"/>

  <!-- Moon -->
  <circle cx="85" cy="35" r="15" fill="#f0e68c"/>

  <!-- Stars -->
  <circle cx="25" cy="25" r="2" fill="#ffffff"/>
  <circle cx="55" cy="20" r="1.5" fill="#ffffff"/>
  <circle cx="70" cy="30" r="1" fill="#ffffff"/>
  <circle cx="45" cy="35" r="1.5" fill="#ffffff"/>

  <!-- Text placeholder -->
  <text x="64" y="120" font-family="Arial" font-size="12" fill="#888888" text-anchor="middle">DV</text>
</svg>